<svg id="Layer_1" data-name="Layer 1" xmlns="http://www.w3.org/2000/svg" viewBox="0 0 57.2 14.1"><defs><style>.cls-1,.cls-2,.cls-4,.cls-5{isolation:isolate;}.cls-2{font-size:6.59px;}.cls-2,.cls-4,.cls-5,.cls-7{fill:#fff;}.cls-2,.cls-4{font-family:Arial-BoldMT, Arial;font-weight:700;}.cls-3{letter-spacing:-0.02em;}.cls-4,.cls-5{font-size:6.46px;}.cls-5{font-family:ArialMT, Arial;}.cls-6{fill:#46469c;}</style></defs><title>logo-3</title><g id="Group_2" data-name="Group 2"><g class="cls-1"><text class="cls-2" transform="translate(0 5.7)">PHARMAC<tspan class="cls-3" x="33.7" y="0">Y</tspan></text><text class="cls-4" transform="translate(36.3 11.6)"> </text></g><text class="cls-5" transform="translate(7.9 11.5)">Community</text></g><path class="cls-6" d="M45.7,7V4h3.8a3,3,0,0,1,1.6.3h0A5.8,5.8,0,0,1,53,4.1h.9A2.4,2.4,0,0,0,53,2.9a3.4,3.4,0,0,0-1.2-.6H42.6v.2l.5.2a.6.6,0,0,1,.1.4v9.6c0,.2,0,.4-.1.4l-.4.2v.3h3.5v-.3l-.4-.2c-.1-.1-.1-.2-.1-.4V8.9h1.4A10.5,10.5,0,0,1,47.6,7Z" transform="translate(-1.5 -1.5)"/><path class="cls-7" d="M57.1,11.2v.2a.8.8,0,0,1-.1.4l-.6.5a6.8,6.8,0,0,1-2.8.7,4.1,4.1,0,0,1-2.7-.8,3.5,3.5,0,0,1-1.3-2.6V9.3a3.7,3.7,0,0,1,.8-1.9H47.8a5.3,5.3,0,0,0-.4,1.8v.3a7,7,0,0,0,.5,2.5,5.6,5.6,0,0,0,1.5,1.6,6.6,6.6,0,0,0,3.8,1.1,6.6,6.6,0,0,0,2.1-.3,4.9,4.9,0,0,0,2.1-1l.8-.3c.1,0,.2,0,.3.2h.2l-1.4-2.1Z" transform="translate(-1.5 -1.5)"/><path class="cls-7" d="M51.9,5a1.9,1.9,0,0,1,.1.8v.4L53.6,6h1a6.4,6.4,0,0,1,1.8.6l.6.4a.7.7,0,0,1,.1.5v.2h.3l1.3-2.1h-.1l-.3.2-.8-.3L55.4,4.5l-1.1-.2h-.9a5.8,5.8,0,0,0-1.9.2Z" transform="translate(-1.5 -1.5)"/></svg>