<svg id="Layer_1" data-name="Layer 1" xmlns="http://www.w3.org/2000/svg" viewBox="0 0 95.29 110.54"><defs><style>.cls-1,.cls-2{isolation:isolate;}.cls-2{font-size:16.09px;font-family:Arial-BoldMT, Arial;font-weight:700;}.cls-2,.cls-5{fill:#231f20;}.cls-3{letter-spacing:-0.02em;}.cls-4,.cls-5{font-size:15.76px;}.cls-5{font-family:ArialMT, Arial;}.cls-6{fill:#45459c;}.cls-7{fill:#a9abb4;}</style></defs><title>logo__1</title><g id="Group_2" data-name="Group 2"><g id="BASIC" class="cls-1"><text class="cls-2" transform="translate(0.33 90.03)">PHARMAC<tspan class="cls-3" x="82.24" y="0">Y</tspan><tspan class="cls-4"><tspan x="44.15" y="14.58"> </tspan></tspan></text><text class="cls-5" transform="translate(5.77 104.39)">Community</text></g></g><path class="cls-6" d="M51.44,34.89V17H74q6.76,0,9.44,1.43l.08.05a48.22,48.22,0,0,1,11.39-1.26,54.75,54.75,0,0,1,5.76.28l-.26-.6A17.33,17.33,0,0,0,95,10.3a20.64,20.64,0,0,0-7.65-3.41,54.63,54.63,0,0,0-11.69-1H33.54V7.48A5.06,5.06,0,0,1,36,8.77a3.45,3.45,0,0,1,.69,2.33V68.27A3.38,3.38,0,0,1,36,70.55a5.14,5.14,0,0,1-2.47,1.28v1.59H54.61V71.83a4.69,4.69,0,0,1-2.45-1.26,3.35,3.35,0,0,1-.72-2.3V46H60a29.66,29.66,0,0,1,2.7-11.12Z" transform="translate(-33.54 -5.9)"/><path class="cls-7" d="M119.42,59.55a8.15,8.15,0,0,1,.08,1.12A3.37,3.37,0,0,1,118.42,63a18.46,18.46,0,0,1-3.86,2.66A32.49,32.49,0,0,1,98.29,70Q88.15,70,82.11,65A19.23,19.23,0,0,1,75,49.46c0-.64,0-1.27.08-1.88A18.87,18.87,0,0,1,79.7,36.3q-1.76.15-3.93.15H64.57a29.67,29.67,0,0,0-2.7,11.13q-.06.91-.06,1.86a30,30,0,0,0,3.52,14.44,27.89,27.89,0,0,0,8.32,9.59q9,6.63,23,6.64a43.27,43.27,0,0,0,12.13-1.5,61.05,61.05,0,0,0,12.56-5.81q3.6-2.08,4.38-2.09a3.39,3.39,0,0,1,2,1.13l1.13-.78-8.24-12.34Z" transform="translate(-33.54 -5.9)"/><path class="cls-7" d="M88,23a9.58,9.58,0,0,1,1.07,4.48,9.94,9.94,0,0,1-.39,2.81,30,30,0,0,1,9.6-1.43,32.55,32.55,0,0,1,16.27,4.32,18.09,18.09,0,0,1,3.86,2.66,3.32,3.32,0,0,1,1.08,2.35,9,9,0,0,1-.08,1.17l1.17.78,8.24-12.37L127.7,27a3.39,3.39,0,0,1-2,1.13q-.78,0-4.38-2a61.62,61.62,0,0,0-12.58-5.81,35.74,35.74,0,0,0-6.31-1.2,57.53,57.53,0,0,0-5.75-.28,48.31,48.31,0,0,0-11.4,1.26A6.87,6.87,0,0,1,88,23Z" transform="translate(-33.54 -5.9)"/></svg>