<svg id="Layer_1" data-name="Layer 1" xmlns="http://www.w3.org/2000/svg" viewBox="0 0 961.9 236.92"><defs><style>.cls-1,.cls-2{isolation:isolate;}.cls-2{font-size:111.09px;font-family:Arial-BoldMT, Arial;font-weight:700;}.cls-2,.cls-5{fill:#231f20;}.cls-3{letter-spacing:-0.02em;}.cls-4,.cls-5{font-size:108.77px;}.cls-5{font-family:ArialMT, Arial;}.cls-6{fill:#45459c;}.cls-7{fill:#a9abb4;}</style></defs><title>logo--1</title><g id="Group_2" data-name="Group 2"><g id="BASIC" class="cls-1"><text class="cls-2" transform="translate(0 95.3)">PHARMAC<tspan class="cls-3" x="567.75" y="0">Y</tspan><tspan class="cls-4"><tspan x="609.61" y="100.67"> </tspan></tspan></text><text class="cls-5" transform="translate(130.73 194.4)">Community</text></g></g><path class="cls-6" d="M741.33,97V46.18h64q19.27,0,26.86,4.07l.21.13a137.24,137.24,0,0,1,32.41-3.59,158.36,158.36,0,0,1,16.36.8c-.24-.56-.48-1.13-.74-1.7a48.71,48.71,0,0,0-15.19-18.84,58.31,58.31,0,0,0-21.73-9.7q-12.3-2.82-33.26-2.82H690.42V19q5.07,1.41,7,3.66t2,6.61V191.88a9.55,9.55,0,0,1-2,6.47q-2,2.25-7,3.65v4.5h59.91V202c-3.28-.84-5.6-2-7-3.58a9.6,9.6,0,0,1-2-6.54V128.59h24.45A84.36,84.36,0,0,1,773.46,97Z" transform="translate(0.52 -3.65)"/><path class="cls-7" d="M934.62,167.06a25.59,25.59,0,0,1,.24,3.21,9.5,9.5,0,0,1-3.08,6.72q-3.09,3.15-11,7.59a92.61,92.61,0,0,1-46.25,12.33q-28.86,0-46-14.41-20.22-16.89-20.23-44.11c0-1.82.09-3.6.23-5.35Q810,114.38,821.67,101c-3.33.28-7,.42-11.16.42H778.65A84.46,84.46,0,0,0,771,133c-.09,1.74-.15,3.5-.15,5.28a85.53,85.53,0,0,0,10,41.08,79.4,79.4,0,0,0,23.68,27.26q25.53,18.87,65.37,18.87,20,0,34.48-4.27t35.7-16.5q10.25-5.94,12.46-5.94t5.68,3.22l3.2-2.23L938,164.72Z" transform="translate(0.52 -3.65)"/><path class="cls-7" d="M845.32,63.21a27.34,27.34,0,0,1,3,12.73,28.93,28.93,0,0,1-1.09,8,84.93,84.93,0,0,1,27.3-4.07,93,93,0,0,1,16.33,1.44A94.06,94.06,0,0,1,920.8,92.15q7.89,4.42,11,7.55a9.48,9.48,0,0,1,3.08,6.7,28.18,28.18,0,0,1-.24,3.32l3.33,2.21,23.43-35.15-3.2-2.22q-3.46,3.19-5.68,3.2T940,72q-21.45-12.34-35.76-16.53A101.14,101.14,0,0,0,886.35,52a158.36,158.36,0,0,0-16.36-.8,137.24,137.24,0,0,0-32.41,3.59A19.59,19.59,0,0,1,845.32,63.21Z" transform="translate(0.52 -3.65)"/></svg>