<svg id="Layer_1" data-name="Layer 1" xmlns="http://www.w3.org/2000/svg" viewBox="0 0 37.8 9.3"><defs><style>.cls-1,.cls-2,.cls-4,.cls-5{isolation:isolate;}.cls-2{font-size:4.36px;}.cls-2,.cls-4,.cls-5,.cls-7{fill:#fff;}.cls-2,.cls-4{font-family:Arial-BoldMT, Arial;font-weight:700;}.cls-3{letter-spacing:-0.02em;}.cls-4,.cls-5{font-size:4.27px;}.cls-5{font-family:ArialMT, Arial;}.cls-6{fill:#46469c;}</style></defs><title>logo4</title><g id="Group_2" data-name="Group 2"><g class="cls-1"><text class="cls-2" transform="translate(0 3.7)">PHARMAC<tspan class="cls-3" x="22.3" y="0">Y</tspan></text><text class="cls-4" transform="translate(24 7.7)"> </text></g><text class="cls-5" transform="translate(5.2 7.6)">Community</text></g><path class="cls-6" d="M29.6,4.6v-2h2.6a2.2,2.2,0,0,1,1,.2h1.9l-.6-.7-.9-.4h-6v.2h.3c.1,0,.1.2.1.3V8.3a.4.4,0,0,1-.1.3h-.2v.2H30V8.7h-.3a.4.4,0,0,1-.1-.3V5.8h1a2.7,2.7,0,0,1,.3-1.2Z" transform="translate(-0.4 -1)"/><path class="cls-7" d="M37.2,7.4h0a.4.4,0,0,1-.1.3l-.4.3a4.1,4.1,0,0,1-1.8.5A2.9,2.9,0,0,1,33,8a2.1,2.1,0,0,1-.8-1.7V6.1a2.2,2.2,0,0,1,.6-1.3H31l-.3,1.3v.2a4.2,4.2,0,0,0,.4,1.6,3.3,3.3,0,0,0,1,1.1,3.9,3.9,0,0,0,2.5.7L36,9.5l1.4-.6.5-.3.2.2h.1l-.9-1.4Z" transform="translate(-0.4 -1)"/><path class="cls-7" d="M33.7,3.3a.7.7,0,0,1,.1.5v.3l1.1-.2h.6l1.2.4.4.3a.4.4,0,0,1,.1.3h.2l.9-1.4h-.1l-.3.2-.4-.3L36.1,3l-.7-.2H33.5C33.5,3,33.6,3.1,33.7,3.3Z" transform="translate(-0.4 -1)"/></svg>