<?xml version="1.0" encoding="utf-8"?>
<!-- Generator: Adobe Illustrator 23.0.1, SVG Export Plug-In . SVG Version: 6.00 Build 0)  -->
<svg version="1.1" id="Layer_1" xmlns="http://www.w3.org/2000/svg" xmlns:xlink="http://www.w3.org/1999/xlink" x="0px" y="0px"
	 viewBox="0 0 111.2 30.6" style="enable-background:new 0 0 111.2 30.6;" xml:space="preserve">
<style type="text/css">
	.st0{fill:#FFFFFF;}
	.st1{font-family:'Arial-BoldMT';}
	.st2{font-size:12.461px;}
	.st3{font-size:12.2014px;}
	.st4{font-family:'ArialMT';}
	.st5{fill:#45449B;}
</style>
<g>
	<g id="Group_2_1_" transform="translate(-372.804 -44.291)">
		<text transform="matrix(1 0 0 1 373.0178 57.0001)" class="st0 st1 st2">PHARMACY</text>
		<text transform="matrix(1 0 0 1 441.6178 68.3001)" class="st0 st1 st3"> </text>
		<text transform="matrix(1 0 0 1 387.907 68.1163)" class="st0 st4 st3">Community</text>
	</g>
</g>
<g>
	<path class="st5" d="M83.7,12.5V6.8h7.2c1.4,0,2.4,0.2,3,0.5l0,0C95,7,96.2,6.9,97.5,6.9c0.7,0,1.3,0,1.8,0.1
		c0-0.1-0.1-0.1-0.1-0.2c-0.4-0.9-1-1.6-1.7-2.1S96,3.8,95.1,3.6c-0.9-0.2-2.2-0.3-3.7-0.3H77.9v0.5c0.4,0.1,0.6,0.2,0.8,0.4
		C78.9,4.3,79,4.6,79,4.9v18.2c0,0.3-0.1,0.6-0.2,0.7c-0.1,0.2-0.4,0.3-0.8,0.4v0.5h6.7v-0.5c-0.4-0.1-0.6-0.2-0.8-0.4
		c-0.2-0.2-0.2-0.4-0.2-0.7V16h2.7c0.1-1.3,0.4-2.5,0.9-3.5H83.7z"/>
	<g>
		<g>
			<path class="st0" d="M105.3,20.3c0,0.1,0,0.3,0,0.4c0,0.3-0.1,0.5-0.3,0.8c-0.2,0.2-0.6,0.5-1.2,0.9c-1.6,0.9-3.4,1.4-5.2,1.4
				c-2.2,0-3.9-0.5-5.2-1.6c-1.5-1.3-2.3-2.9-2.3-4.9c0-0.2,0-0.4,0-0.6c0.1-1.4,0.6-2.6,1.5-3.6c-0.4,0-0.8,0-1.3,0h-3.6
				c-0.5,1.1-0.8,2.3-0.9,3.5c0,0.2,0,0.4,0,0.6c0,1.7,0.4,3.2,1.1,4.6c0.6,1.2,1.5,2.2,2.7,3.1c1.9,1.4,4.4,2.1,7.3,2.1
				c1.5,0,2.8-0.2,3.9-0.5s2.4-0.9,4-1.9c0.8-0.4,1.2-0.7,1.4-0.7s0.4,0.1,0.6,0.4l0.4-0.2l-2.6-3.9L105.3,20.3z"/>
			<path class="st0" d="M95.3,8.7c0.2,0.4,0.3,0.9,0.3,1.4c0,0.3,0,0.6-0.1,0.9c0.9-0.3,1.9-0.5,3.1-0.5c0.6,0,1.2,0.1,1.8,0.2
				c1.2,0.2,2.3,0.6,3.4,1.2c0.6,0.3,1,0.6,1.2,0.8s0.3,0.5,0.3,0.8c0,0.1,0,0.2,0,0.4l0.4,0.2l2.6-3.9L108,10
				c-0.3,0.2-0.5,0.4-0.6,0.4s-0.6-0.2-1.4-0.7c-1.6-0.9-2.9-1.5-4-1.9c-0.6-0.2-1.3-0.3-2-0.4c-0.6-0.1-1.2-0.1-1.8-0.1
				c-1.3,0-2.5,0.1-3.6,0.4C94.8,8,95.1,8.3,95.3,8.7z"/>
		</g>
	</g>
</g>
</svg>
